<svg width="33" height="27" viewBox="0 0 33 27" fill="none" xmlns="http://www.w3.org/2000/svg">
<path d="M32.8892 3.17148C31.6797 3.70741 30.3804 4.06953 29.0145 4.23321C30.4239 3.3899 31.4783 2.06261 31.981 0.499028C30.6569 1.28554 29.2077 1.83916 27.6964 2.13581C26.6801 1.0507 25.334 0.331477 23.8671 0.0897948C22.4002 -0.151887 20.8945 0.0974971 19.5838 0.79923C18.2731 1.50096 17.2308 2.61578 16.6186 3.97061C16.0065 5.32543 15.8587 6.84446 16.1984 8.29186C13.5153 8.15714 10.8906 7.45978 8.49451 6.24502C6.09842 5.03025 3.98454 3.32525 2.29005 1.24065C1.71066 2.2401 1.37751 3.39889 1.37751 4.63299C1.37686 5.74397 1.65045 6.83793 2.17399 7.81782C2.69754 8.7977 3.45486 9.63321 4.37876 10.2502C3.30728 10.2161 2.25945 9.92659 1.32246 9.40574V9.49265C1.32236 11.0508 1.86135 12.5611 2.84798 13.7671C3.83461 14.9731 5.20812 15.8007 6.73544 16.1093C5.74146 16.3783 4.69936 16.4179 3.68783 16.2252C4.11875 17.5659 4.95814 18.7383 6.0885 19.5783C7.21885 20.4183 8.58358 20.8838 9.99162 20.9096C7.60139 22.786 4.64946 23.8038 1.61071 23.7993C1.07243 23.7994 0.5346 23.768 0 23.7051C3.08451 25.6884 6.67509 26.7409 10.3422 26.7368C22.7556 26.7368 29.5418 16.4555 29.5418 7.53865C29.5418 7.24895 29.5345 6.95636 29.5215 6.66666C30.8415 5.71207 31.9809 4.53 32.8863 3.17582L32.8892 3.17148Z" fill="#F4F1EA"/>
</svg>
