<?xml version="1.0" encoding="UTF-8"?>
<svg xmlns="http://www.w3.org/2000/svg" xmlns:xlink="http://www.w3.org/1999/xlink" viewBox="0 0 24 24" width="24px" height="24px">
<g id="surface2721091">
<path style=" stroke:none;fill-rule:nonzero;fill:rgb(100%,100%,100%);fill-opacity:1;" d="M 12 2 C 6.488281 2 2 6.488281 2 12 C 2 17.511719 6.488281 22 12 22 C 17.511719 22 22 17.511719 22 12 C 22 6.488281 17.511719 2 12 2 Z M 12 4 C 16.429688 4 20 7.570312 20 12 C 20 16.429688 16.429688 20 12 20 C 7.570312 20 4 16.429688 4 12 C 4 7.570312 7.570312 4 12 4 Z M 6.445312 8.5 C 6.0625 8.5 6 8.6875 6 8.886719 C 6 9.246094 6.300781 11.195312 7.9375 13.4375 C 9.125 15.0625 10.6875 16 12.074219 16 C 12.914062 16 13 15.785156 13 15.453125 L 13 13.964844 C 13 13.566406 13.09375 13.5 13.359375 13.5 C 13.550781 13.5 13.9375 13.625 14.6875 14.5 C 15.550781 15.507812 15.710938 16 16.207031 16 L 17.515625 16 C 17.820312 16 17.996094 15.871094 18.003906 15.625 C 18.003906 15.5625 17.992188 15.488281 17.972656 15.410156 C 17.875 15.125 17.433594 14.421875 16.878906 13.75 C 16.570312 13.378906 16.265625 13.007812 16.128906 12.808594 C 16.03125 12.679688 15.996094 12.589844 16 12.5 C 16.003906 12.40625 16.050781 12.316406 16.125 12.195312 C 16.113281 12.195312 17.804688 9.820312 17.96875 9.019531 C 17.992188 8.945312 18.003906 8.875 18 8.8125 C 17.992188 8.632812 17.867188 8.5 17.574219 8.5 L 16.265625 8.5 C 15.9375 8.5 15.78125 8.699219 15.691406 8.898438 C 15.691406 8.898438 14.878906 10.578125 13.9375 11.6875 C 13.632812 12.007812 13.476562 12 13.3125 12 C 13.222656 12 13 11.894531 13 11.597656 L 13 9.007812 C 13 8.660156 12.914062 8.5 12.632812 8.5 L 10.308594 8.5 C 10.105469 8.5 10 8.660156 10 8.820312 C 10 9.152344 10.449219 9.234375 10.5 10.167969 L 10.5 11.980469 C 10.5 12.421875 10.425781 12.5 10.257812 12.5 C 9.816406 12.5 8.9375 11 8.351562 9.03125 C 8.222656 8.644531 8.097656 8.5 7.765625 8.5 Z M 6.445312 8.5 "/>
</g>
</svg>
