<svg width="32" height="22" viewBox="0 0 32 22" fill="none" xmlns="http://www.w3.org/2000/svg">
<path d="M31.3332 3.67594C31.152 3.02958 30.799 2.4444 30.3118 1.98261C29.8109 1.50661 29.1969 1.16612 28.5278 0.993272C26.0238 0.333272 15.9918 0.333272 15.9918 0.333272C11.8096 0.285689 7.62842 0.494971 3.47185 0.959938C2.80277 1.14556 2.18993 1.49365 1.68785 1.97327C1.19451 2.44794 0.83718 3.03327 0.650513 3.67461C0.202104 6.09026 -0.0157643 8.54306 -0.000153652 10.9999C-0.0161537 13.4546 0.20118 15.9066 0.650513 18.3253C0.83318 18.9639 1.18918 19.5466 1.68385 20.0173C2.17851 20.4879 2.79451 20.8279 3.47185 21.0079C6.00918 21.6666 15.9918 21.6666 15.9918 21.6666C20.1794 21.7143 24.3659 21.505 28.5278 21.0399C29.1969 20.8671 29.8109 20.5266 30.3118 20.0506C30.8052 19.5799 31.1558 18.9946 31.3318 18.3573C31.792 15.9425 32.0157 13.4887 31.9998 11.0306C32.0345 8.56208 31.811 6.09669 31.3332 3.67461V3.67594ZM12.8025 15.5653V6.43594L21.1492 11.0013L12.8025 15.5653Z" fill="#F4F1EA"/>
</svg>
