<svg width="87" height="60" viewBox="0 0 87 60" fill="none" xmlns="http://www.w3.org/2000/svg">
<path d="M87 5.26784C87 5.90311 86.8734 6.53216 86.6275 7.11907C86.3816 7.70599 86.0211 8.23927 85.5667 8.68847C85.1122 9.13768 84.5727 9.494 83.979 9.73711C83.3853 9.98022 82.7489 10.1053 82.1062 10.1053C81.463 10.1063 80.8258 9.98185 80.2313 9.73917C79.6367 9.49648 79.0964 9.14031 78.6412 8.69101C78.186 8.24171 77.8248 7.70811 77.5785 7.12073C77.3321 6.53335 77.2053 5.90372 77.2053 5.26784C77.2048 4.63197 77.3311 4.00224 77.5771 3.41468C77.823 2.82712 78.1837 2.29326 78.6386 1.84363C79.0935 1.394 79.6335 1.03743 80.2279 0.794305C80.8223 0.551185 81.4594 0.426288 82.1026 0.426759C82.7456 0.426288 83.3823 0.551066 83.9765 0.793963C84.5707 1.03686 85.1106 1.39311 85.5654 1.84236C86.0202 2.29161 86.381 2.82505 86.6271 3.4122C86.8733 3.99935 87 4.62869 87 5.26426V5.26784ZM59.9901 52.6108C58.8803 52.6268 57.7785 52.4224 56.75 52.0099C55.7215 51.5974 54.7872 50.9852 54.0023 50.2093C53.2175 49.4335 52.5981 48.5099 52.1808 47.4932C51.7635 46.4765 51.5568 45.3874 51.5729 44.2903H44.225C44.225 53.0659 51.1125 59.5697 59.8343 59.5697C68.556 59.5697 75.5958 52.9154 75.5958 44.2903H68.4038C68.2479 49.1314 64.5758 52.6108 59.9865 52.6108H59.9901ZM78.5066 42.4772H85.6986V13.4343H78.5066V42.4772ZM0 42.4808H7.192V1.33334H0V42.4808ZM25.8644 12.5277C16.9868 12.5277 10.2515 19.1855 10.2515 27.807C10.2341 29.8384 10.6261 31.8528 11.4046 33.7329C12.1831 35.6129 13.3325 37.3209 14.7858 38.7572C16.2392 40.1934 17.9673 41.3293 19.8693 42.0984C21.7714 42.8675 23.8094 43.2545 25.8644 43.2368C34.5861 43.2368 41.4736 36.579 41.4736 27.9575C41.4736 19.336 34.7384 12.5277 25.8644 12.5277V12.5277ZM25.8644 36.278C21.1156 36.278 17.4471 32.6481 17.4471 27.807C17.431 26.7099 17.6377 25.6208 18.055 24.6041C18.4723 23.5874 19.0917 22.6639 19.8766 21.888C20.6614 21.1122 21.5957 20.4999 22.6243 20.0874C23.6528 19.6749 24.7546 19.4706 25.8644 19.4865C26.9739 19.4711 28.0753 19.6758 29.1034 20.0885C30.1315 20.5012 31.0654 21.1136 31.8498 21.8893C32.6343 22.6651 33.2534 23.5885 33.6704 24.605C34.0875 25.6214 34.2941 26.7102 34.278 27.807C34.278 32.4976 30.7618 36.278 25.8644 36.278V36.278ZM75.2913 19.1855V13.4343H65.0397C63.3577 12.6818 61.6721 12.5277 59.9901 12.5277C51.1125 12.5277 44.2286 19.1855 44.2286 27.9575C44.2286 36.7331 51.1161 43.2368 59.8379 43.2368C68.5596 43.2368 75.4471 36.579 75.4471 27.9575C75.4471 24.9332 74.5264 22.2098 72.9966 20.0921L75.2913 19.1855ZM59.9901 36.278C55.245 36.278 51.5729 32.6481 51.5729 27.807C51.5568 26.7099 51.7635 25.6208 52.1808 24.6041C52.5981 23.5874 53.2175 22.6639 54.0023 21.888C54.7872 21.1122 55.7215 20.4999 56.75 20.0874C57.7785 19.6749 58.8803 19.4706 59.9901 19.4865C61.0999 19.4706 62.2017 19.6749 63.2302 20.0874C64.2588 20.4999 65.1931 21.1122 65.9779 21.888C66.7628 22.6639 67.3822 23.5874 67.7995 24.6041C68.2168 25.6208 68.4235 26.7099 68.4074 27.807C68.4074 32.4976 64.5794 36.278 59.9901 36.278V36.278Z" fill="white" fill-opacity="0.5"/>
</svg>
