<svg width="66" height="49" viewBox="0 0 66 49" fill="none" xmlns="http://www.w3.org/2000/svg">
<path d="M0 0.125V48.875H66V0.125H0ZM36.3247 4.61812C32.3978 6.10229 28.6275 9.37667 25.586 15.9444C24.7032 17.8483 23.0422 21.529 22.286 23.1756C16.17 36.3977 13.035 39.2415 3.806 39.2415V3.78125H36.1625C36.6685 3.75146 36.8088 4.45833 36.3275 4.61812H36.3247ZM62.2517 9.74771V45.2187H29.8403C29.3425 45.2323 29.216 44.5417 29.689 44.3819C33.6133 42.8977 37.3835 39.6233 40.425 33.0556C41.3078 31.1517 42.9715 27.471 43.725 25.8244C49.83 12.6023 52.965 9.75854 62.194 9.75854L62.2517 9.74771Z" fill="white" fill-opacity="0.5"/>
</svg>
