<svg width="157" height="33" viewBox="0 0 157 33" fill="none" xmlns="http://www.w3.org/2000/svg">
<path d="M156.372 8.57374V0.291992H125.914C119.555 0.291992 116.69 4.21699 116.219 8.02424V8.14199V0.291992H107.27V8.57374H116.18H156.372ZM116.18 11.5567L107.231 11.0465V20.5842C107.231 23.5672 105.739 24.47 100.558 24.47H93.415C89.1367 24.47 87.3313 23.2532 87.3313 20.5842V10.1437L78.2645 9.47649V21.33H78.0682C77.558 17.876 76.2627 13.8725 67.6277 13.2837L39.25 11.3997C39.25 15.7565 42.3507 18.347 47.2177 18.8572L66.9997 20.859C68.5697 20.9767 69.708 21.4477 69.708 22.743C69.708 24.156 68.5305 24.313 66.725 24.313H38.8968V11.3997L29.83 10.811V32.7125H66.7643C75.0068 32.7125 77.6365 28.4342 78.029 24.8625H78.2253C79.2458 30.5145 84.1912 32.7125 92.5515 32.7125H101.775C111.548 32.7125 116.18 29.7295 116.18 22.743V11.5567ZM144.95 13.2445L116.572 11.5567C116.572 15.9135 119.438 18.818 124.305 19.2105L144.518 20.7805C146.088 20.8982 147.031 21.2907 147.031 22.586C147.031 23.8027 145.931 24.2737 143.655 24.2737H116.101V32.7125H144.244C153.114 32.7125 157 29.6117 157 22.5467C157 16.1882 153.507 13.794 144.95 13.2445ZM78.2645 0.291992H87.3313V8.57374H78.2645V0.291992ZM24.8452 10.4185L14.9935 9.43724L0 32.7125H11.0292L24.8452 10.4185ZM76.616 0.291992H48.9447C42.5077 0.291992 39.6818 4.29549 39.0145 8.14199V0.291992H23.6677C21.509 0.291992 20.4885 0.959242 19.468 2.45074L15.229 8.57374H76.616V0.291992Z" fill="white" fill-opacity="0.5"/>
</svg>
